<svg version="1.1" viewBox="0 0 2847 1899" xml:space="preserve" xmlns="http://www.w3.org/2000/svg"><defs><linearGradient id="linearGradient11" x1="1734" x2="1734" y1="1302" y2="-13" gradientUnits="userSpaceOnUse"><stop stop-color="#cb764c" offset="0"/><stop stop-color="#4e2652" offset="1"/></linearGradient><radialGradient id="radialGradient2" cx="1647" cy="1103" r="474" gradientTransform="matrix(.736 -.669 .706 .777 -321 1325)" gradientUnits="userSpaceOnUse"><stop stop-color="#dbc5bd" offset=".486"/><stop stop-color="#dbc5bd" stop-opacity="0" offset="1"/></radialGradient><clipPath id="clipPath61"><rect x="3.57" y="275" width="2847" height="1899" fill="#fff" opacity=".369" style="paint-order:stroke fill markers"/></clipPath></defs><g transform="translate(-3.57 -275)" clip-path="url(#clipPath61)"><g><rect x="-22.8" y="-22.8" width="3388" height="1328" fill="url(#linearGradient11)"/><circle cx="1677" cy="1089" r="498" fill="url(#radialGradient2)" opacity=".208" stroke-width="2.49" style="mix-blend-mode:normal"/><circle cx="1670" cy="1151" r="224" fill="#bebe9a" stroke-width="1.12"/></g><path transform="matrix(13.2 0 0 13.2 -1139 -2950)" d="m211 318c-3.41-0.386-6.74-1.64-8.96-3.39-2.32-1.82-3.66-3.71-4.43-6.24-0.286-0.942-0.207-4.39 0.12-5.17 0.143-0.341 0.263-0.685 0.267-0.763 0.0277-0.495 1.49-2.65 2.48-3.65 1.33-1.35 3.11-2.6 3.7-2.6 0.6 0 0.2 0.604-0.786 1.18-1.08 0.636-3.18 2.74-3.81 3.81-1.9 3.24-1.8 6.93 0.249 9.92 4.1 5.96 13.8 8.05 21.2 4.56 2.89-1.36 4.93-3.16 6.2-5.46 0.826-1.5 1.1-2.86 1-4.94-0.0712-1.49-0.167-1.87-0.77-3.09-0.833-1.69-2.54-3.6-4.14-4.65-1.5-0.981-1.67-1.13-1.54-1.34 0.221-0.358 0.803-0.155 2.08 0.721 4.23 2.91 6.12 7.26 4.98 11.4-0.577 2.1-1.33 3.33-3.19 5.18-1.34 1.34-1.91 1.75-3.4 2.47-0.982 0.477-2.17 0.995-2.64 1.15-2.38 0.791-6.07 1.17-8.6 0.884zm4.71-20.5c1.29-0.398 2.5-1.12 2.96-1.76 0.384-0.531 0.908-1.99 0.926-2.58 0.0145-0.477 9e-3 -0.479-1.16-0.358-0.647 0.067-1.59 0.304-2.09 0.527-0.504 0.223-0.983 0.405-1.07 0.405s-0.355-0.444-0.604-0.987c-0.518-1.13-1.37-2.21-1.74-2.21-0.342 0-1.34 1.29-1.8 2.34-0.21 0.474-0.451 0.861-0.537 0.861-0.0861 0-0.629-0.216-1.21-0.481-0.767-0.351-1.29-0.465-1.95-0.423-0.827 0.0528-0.905 0.1-0.96 0.577-0.102 0.883 0.76 2.47 1.68 3.09 0.764 0.52 2.01 1.06 2.89 1.24 1.09 0.233 3.51 0.102 4.65-0.251zm-3.81 1.2c-1.13-0.194-2.79-0.714-3.61-1.12-0.776-0.392-2.5-2.09-2.51-2.47-2e-3 -0.0778-0.0514-0.226-0.111-0.329-0.0593-0.103-0.1-0.78-0.0912-1.5l0.0167-1.32 1.41 0.0416c0.776 0.0229 1.82 0.165 2.32 0.316l0.91 0.274 0.313-0.598c0.172-0.329 0.75-1.05 1.29-1.6 0.849-0.874 1.02-0.975 1.36-0.795 0.676 0.362 1.75 1.58 2.12 2.41 0.34 0.758 0.379 0.785 0.773 0.532 0.544-0.348 3.11-0.813 3.71-0.673 0.426 0.0999 0.474 0.212 0.527 1.22 0.131 2.53-1.39 4.27-4.57 5.24-1.01 0.307-3.09 0.511-3.85 0.379zm3.67 24.8c1.03-0.819 2.09-1.63 2.35-1.81 0.259-0.175 0.851-0.589 1.32-0.92 0.97-0.69 3.91-2.42 4.11-2.42 0.075 0 0.516-0.241 0.979-0.535 0.464-0.294 1.05-0.583 1.31-0.641 0.255-0.0588 1.09-0.326 1.85-0.594 1.62-0.573 3.26-0.964 4.82-1.16 0.927-0.114 1.05-0.166 0.685-0.3-0.357-0.132-0.416-0.253-0.317-0.647 0.0878-0.35 0.0591-0.446-0.103-0.346-0.132 0.0817-0.175 0.0591-0.105-0.0549 0.0659-0.107-0.0964-0.813-0.361-1.57-1.28-3.66-1.66-8.05-0.955-11.2 0.423-1.89 1.21-4.33 1.65-5.11 0.183-0.326 0.282-0.644 0.22-0.705-0.0616-0.0616 8e-3 -0.118 0.154-0.126 0.147-8e-3 -0.918-0.297-2.37-0.644-6.91-1.65-12-4.21-15.9-7.93-0.672-0.648-1.29-1.18-1.36-1.18-0.0776-2e-3 -0.247-6e-3 -0.376-8e-3 -0.157-2e-3 -0.141-0.0636 0.047-0.185 0.155-0.1 0.214-0.184 0.13-0.185-0.0836-1e-3 -0.845 0.529-1.69 1.18-1.8 1.38-4.05 2.96-4.21 2.96-0.0645 0-0.265 0.134-0.446 0.298-0.406 0.367-1.03 0.724-3.56 2.02-2.32 1.19-4.91 2.19-7.14 2.74-0.875 0.217-1.91 0.481-2.3 0.585l-0.704 0.19 0.441 1.08c0.514 1.25 0.705 1.93 1.25 4.4 0.348 1.58 0.389 2.23 0.314 4.98-0.0877 3.18-0.198 3.87-1.13 7.02-0.23 0.775-0.395 1.48-0.367 1.56s-0.0781 0.281-0.235 0.438c-0.475 0.475-0.339 0.587 0.984 0.811 2.37 0.401 6.58 1.78 9.01 2.94 1.02 0.489 1.96 0.89 2.08 0.893 0.125 2e-3 0.183 0.0744 0.13 0.161-0.0533 0.0862-0.0166 0.157 0.0817 0.157 0.577 0 5.7 3.79 6.97 5.15 0.279 0.299 0.533 0.426 0.658 0.328 0.112-0.0876 1.05-0.829 2.08-1.65zm-3.57 1.41c-2.09-2.1-5.36-4.37-8.18-5.66-3.71-1.71-5.85-2.43-9.45-3.17-1.35-0.279-2.02-0.502-2.02-0.668 0-0.137 0.0731-0.25 0.162-0.25 0.236 0 1.27-3 1.75-5.08 0.331-1.44 0.415-2.4 0.425-4.89 0.0116-2.92-0.0877-3.78-0.658-5.74-0.0905-0.31-0.214-0.884-0.274-1.27-0.06-0.391-0.18-0.667-0.266-0.613-0.0866 0.0535-0.149-8e-3 -0.138-0.136 0.0378-0.467-0.658-2.4-0.864-2.4-0.133 0-0.146-0.0637-0.0336-0.17 0.0982-0.0937 0.887-0.313 1.75-0.487 3.54-0.713 7.11-2.09 10.7-4.15 1.95-1.1 5.3-3.34 6.52-4.36 1.49-1.24 1.66-1.39 1.4-1.26-0.172 0.0896-0.218 0.0629-0.132-0.0768 0.163-0.263 1.05-0.213 1.05 0.0592 0 0.108 0.402 0.625 0.893 1.15 3.88 4.13 9.8 7.11 17.2 8.62 0.776 0.16 1.6 0.291 1.83 0.291 0.537 1.9e-4 0.531 0.176-0.0432 1.31-1.52 2.99-2.28 6.64-2.11 10 0.142 2.74 0.666 5.09 1.7 7.61 0.458 1.12 0.795 2.09 0.749 2.17-0.0464 0.0775-0.412 0.141-0.813 0.141-1.98 0-6.11 1.26-9.22 2.8-2.72 1.35-6.63 3.94-8.76 5.79-0.954 0.83-1.89 1.56-1.99 1.55-0.0354-5e-3 -0.572-0.519-1.19-1.14zm1.79 0.986c0-0.103 0.0846-0.24 0.188-0.304 0.103-0.0639 0.188-0.0316 0.188 0.0718 0 0.103-0.0846 0.24-0.188 0.304-0.103 0.0639-0.188 0.0316-0.188-0.0718z" fill="#fff"/><g><path d="m2530 1155c-2.89-1.44-89.5-20.9-130-52.7 0 0-59.2 0-75.8-3.61 0 0-46.9 15.9-71.4 0s-36.8-4.33-36.8-4.33-105 31.7-125 27.4-49.1-8.66-49.1-8.66-23.8 2.89-56.3 15.9-84.4 24.5-84.4 24.5l-181 36.1-49.1-28.1s-173-21.6-222-59.2c0 0-99.6 41.8-167 13.7s-83.7-31.7-83.7-31.7-67.1 0-96-12.3-60.6-11.5-60.6-11.5-24.5-7.22-27.4-12.3c0 0-60.6 36.8-82.3 37.5-21.6 0.722-52 2.16-92.4 18-40.4 15.9-93.1 23.1-110 22.4-17.3-0.722-182 66.4-182 66.4l1429 139s658-69.8 650-71.9c-8.72-2.18-97.2-105-97.2-105z" fill="#9f6358"/><path d="m3270 1183s-133 107-301 0-276-40.5-276-40.5-23.8 37.3-140 11.1c-116-26.2-163-6.35-163-6.35s-69.9 33.4-182-18.3l-279 65.1-215 32.6-134-15.9s-38.1-11.9-69.1-13.5c-31-1.59-66.7 4.77-66.7 4.77s-224 8.74-293-26.2c-69.1-35-157-26.2-157-26.2s-38.9 4.77-113 38.1-131 10.3-131 10.3-130-0.794-195-19.1c-64.3-18.3-98.5-18.3-98.5-18.3s-50.8 7.15-81 24.6c-30.2 17.5-86.6 14.3-86.6 14.3s-131-6.35-220 24.6c-89 31 2.38 90.6 1.59 87.4-0.794-3.18 2139 217 2139 217l1059 15 30-207z" fill="#8b4d5d"/><path d="m3274 1294s-258-5.75-316-13.7c-57.5-7.91-80.5-24.5-80.5-24.5s-28.8-10.8-119-10.8h-102v24.5h-18v-21.6h-102v12.2h-18v-53.2h-6.6v9.18h-3.77v-8.79h-6.69v8.37h-4.6v-8.37h-6.69v7.95h-5.44v-7.11h-7.11v8.37h-6.69v-9.21h-6.69v10h-5.02v-9.21h-8.79v67.4h-32.2v-36h-5.44v11.3h-3.77v-10.9h-5.02v10.9h-4.6v-10.9h-4.6v10h-4.6v-10h-4.6v9.21h-4.18v-8.79h-7.95v28.5h-77.4v-31.8h-4.6v8.37h-6.28v-8.79h-5.86v8.79h-5.44v-8.79h-4.6v7.95h-5.44v-7.53h-5.02v69h-17.2v20.1h-14.6v-107h-7.95v9.62h-4.6v-9.62h-5.86v8.37h-3.77v-8.79h-5.02v8.37h-4.6v-7.95h-6.28v7.11h-4.6v-6.69h-9.62v52.7h-39.7v-33.1s1.26-4.6-5.86-9.62c-7.11-5.02-7.95-12.6-7.95-12.6s-2.51-19.7-5.02 0c0 0-0.837 11.3-8.37 13s-5.02 46.4-5.02 46.4h-27.6v-20.1s-7.11-27.2-14.2-0.418v19.7h-23.4v-43.5s-6.69-22.6-10 0v17.6s-15.1-14.6-93.7-12.1v-34.3h-10v-37.7s-8.37-4.18-4.6-7.95-3.77-8.37-3.77-8.37-3.35-8.79-6.28-0.418c0 0-5.02 4.18-2.93 8.79s-0.418 6.69-0.418 6.69h-19.2s1.67-20.5-15.5-1.26l-18.8-1.26s-0.418-25.9-6.28-27.6c0 0-7.11-11.7-33.5-29.7 0 0-2.09-43.9-7.53 0 0 0-30.5 19.2-34.3 36.4h-109l-16.6 61.9v-88.7l-8.1-1.67s2.93-19.7-3.77-26.8c0 0-2.51-31-5.44 0 0 0-5.02 11.3-4.6 25.1h-5.86v103h-44.8s-32.6-3.77-32.6 32.6v25.9h-36.8v-28h-43.9v50.6h-115v-39.3h-90.4v-13h-37.7v11.3h-18v-24.7s-9.21-14.6-20.5-15.5c0 0-2.09-13.8-6.28 0 0 0-15.1 6.28-16.1 16.1h-9v-16.9h-126v31.8h-31.8v-23h-23.8v41.4h-29.7v13.4h-9.62v-12.6h-54.8s-5.02-29.7-8.37-0.837h-7.11s-0.837-64.9-7.95 0h-7.95s-0.521-26.2-7.53 0v6.69h-25.1l-12.1-61.5-13 75.3h-10.9v-23s-20.9-18.4-47.3-17.6c-1.26-3.77-0.418-24.7-0.418-24.7l-24.3-19.2s-5.86-32.6-7.95 0l-26.8 19.7v22.6h-11.3v46.9h-36.8v-39.7s-56.5-11.7-66.5-25.1c0 0-1.6-30.3-8.12-2.18 0 0 0.172 7.2-7.78 13.1s-12.1 10.9-12.1 10.9-6.28 7.11 0 8.79v69h-14.2s2.51-37.2-22.6-38.5c0 0-5.44-11.3-59.4-8.37-54 2.93-172-31.8-172-31.8s-135-67.8-255-64.4c-120 3.35-49 231-49 231l-8.3 871 3372-52.4z" fill="#4e2652"/><path d="m1899 1503h-739s49.9 41.3 50.2 42.5c0.306 1.22 415-21.7 415-21.7s259 0.918 260-0.306c0.612-1.22 14.1-20.5 14.1-20.5z" fill="#bfa979"/><path d="m2368 1299-18 0.721 1.44 113h-14.4l-1.44-31-1307 1.44 0.719-76.3 0.137-4.35s-10-0.647-10.2 0 0 16.3 0 16.3l-4.21 0.162 0.162-17-10.3-0.322 0.162 15.8-4.53-0.162 0.324-15.5-11.3-0.16 0.484 16.2-5.34-0.324-2.59-0.324v-14.7h-11.5l-0.484 101-27.5 0.16 0.971-71.6-7.92-0.162v14.9l-5.82-0.16 0.486-14.9h-9.38l-0.162 15.2-6.63-0.322 0.162-15.2h-8.73l0.162 14.6-5.98-0.16 0.162-14.2-8.89 0.162-1.46 99.8-160-1.15v35.3s-180-8.35-291 43.6c-111 52-276 49.2-276 49.2s-150-30.6-191-2.79c-40.8 27.8-17.6 170-17.6 170l6.5 486s3329 3.7 3337 6.49c-1.14-4.28-23.3-682-22.4-684-1.11-0.687-85.3-52.2-251 0.726-167 53.3-256-61.2-256-61.2s-46.8-38.2-263-13l-2.88-161h-23v15.1l-14.4 0.721v-15.8h-19.4v15.8h-13l0.721-15.8h-18.7v17.3h-12.2l0.721-17.3h-21.6l-0.719 18h-11.5zm929 918s-2e-4 0.01 0 0.01c0-1e-4 -2e-4 0 0.01 0-1e-4 0 0-0.01 0-0.01zm-1050-806c26.7 0.096 29.7 26.3 29.7 26.3l-71.9 19.3s-9.4-34.2 29.3-43.9c4.84-1.21 9.14-1.72 12.9-1.71zm-518 0.609c34.2 0 43.6 43.6 43.6 43.6v59.1l-175 13.4-320-1.34-116-24.2-1.34-52.4s9.4-36.3 34.9-36.3 36.3 29.5 36.3 29.5l1.34 73.2h53l-0.672-66.5s7.39-36.3 36.9-36.9 38.9 34.2 38.9 34.2l0.672 67.8 54.4 0.672 0.672-67.8s5.37-34.2 37.6-34.9 36.9 34.9 36.9 34.9l2.01 67.8h51v-61.1s3.36-41 41-41 44.6 44.6 44.6 44.6v56.7h58.7v-63.1s6.04-40.3 40.3-40.3zm387 0.639c38.9 1.24 35.7 50.4 35.7 50.4h-74.5s-8.06-48.3 34.9-50.4c1.34-0.063 2.64-0.073 3.89-0.033zm-254 1.04c33.2 0 37.6 37.6 37.6 37.6v52s-74.9 6.6-75.5 9.98v0.09c-0.01-0.029-0.01-0.06 0-0.09v-61.7s4.7-37.9 37.9-37.9zm-790 0.082c10.1-0.285 21.9 4.3 31.7 21.5 0 0 2.89 17.4 1.74 46.9l-41.1-23.1s2.89-33.6-15.6-36.4c0 0 10.3-8.42 23.2-8.79zm919 0.135c25.4 1.25 34.3 29 34.3 29v32.2l-71.8 16.8v-45.7s2.68-29.5 32.2-32.2c1.85-0.168 3.62-0.203 5.31-0.119z" fill="#3f1f42"/></g><g><path d="m3290 1892s-164-50.6-237-103c-72.8-52.6-684-76.9-684-76.9s-251-18.2-74.9-32.4c176-14.2 180-34.4 180-34.4s68.8-44.5-95.1-58.7c-164-14.2-544-32.4-544-32.4l-206-6.07 46.5 38.4 83 12.1 78.9 20.2h-907s-645 0-360 46.5 405 50.6 405 50.6 152 12.1-42.5 20.2c-194 8.09-78.9 32.4-78.9 32.4s255 30.4-2.02 50.6c-257 20.2-415 85-415 85s-350 101-471 103c-121 2.02-46.5 219-46.5 219s3529-18.2 3523-4.05c-6.07 14.2-152-330-152-330z" fill="#ca8059"/><path d="m1899 1502h-76.5v12.2s39.2-1.84 76.5-12.2z" fill="#bfa979"/><path d="m1161 1503h68.3v13.5h56.3v-12h75.1v12.8h54.8v-11.3h75.1v10.5h52.6v-9.01h84.9v8.26h60.8v-11.3h81.1v10.5l-212 20.3s-136 9.76-24.8 12c111 2.25 134 4.51 134 4.51s23.3 0.751 12 7.51c-11.3 6.76-0.751 13.5-0.751 13.5s98.4 27.8 348 23.3c249-4.51 300 19.5 300 19.5s48.1 17.3-13.5 24.8-436 25.5-436 25.5-266 12.8-35.3 30c231 17.3 651 67.6 728 76.6 76.6 9.01 133 26.3 133 26.3s110 34.5-48.1 66.8-570 72.1-758 76.6c-188 4.51-460 16.5-460 16.5s-395 11.3-508 3.75c-113-7.51-131-24.8-131-24.8s-52.6-24 21-58.6c73.6-34.5 190-48.1 190-48.1l685-82.6s169-29.3-18.8-33.8c-188-4.51-407-9.76-407-9.76l-323-8.26s-275-6.01 38.3-27c313-21 775-27.8 775-27.8s259-20.3 125-30.8c0 0-115-5.26-125-7.51-10.5-2.25-122-26.3-122-26.3s-124-18.8-165-11.3c-41.3 7.51-138-9.76-146-17.3-8.26-7.51-163-45.8-163-45.8z" fill="#bfa979"/></g><g><g fill="#956351"><path d="m577 1282h14.5v-17.6h-15.4z"/><path d="m678 1226v15.8h12.2v-15.4z"/><path d="m700 1225v16.7h12.2v-16.3z"/><path d="m689 1267v18.1h15.8v-16.7z"/><path d="m728 1269v16.7h12.7v-17.2z"/><path d="m750 1270v16.7h12.2v-16.7z"/></g><ellipse cx="1630" cy="1166" rx="5.58" ry="7.57" fill="#b88b7a"/><path d="m1626 1135 7.21-0.36v-9.37s-3.96-9.01-6.85 0.36z" fill="#dbc5bd"/><g fill="#956351"><path d="m2126 1267h3.91v-12.9s-2.15-10.4-4.3 0"/><path d="m2113 1266h3.91v-12.9s-2.15-10.4-4.3 0"/><path d="m1058 1254v13.1h14.9v-13.1z"/><path d="m1090 1253v13.1h14.9v-12.7z"/><path d="m1168 1243v14.5h16.7v-14z"/></g><g fill="#b88b7a"><path d="m1788 1223h7.42v-37.3s-6.62 1.59-7.15 9.27-0.265 28.1-0.265 28.1z"/><path d="m1802 1223h8.21v-49.3s-6.54 3.31-7.38 12.8c-0.834 9.47-0.834 36.5-0.834 36.5z"/><path d="m1823 1223h-7.68v-49s8.15 3.86 8.15 14.1-0.468 34.9-0.468 34.9z"/><path d="m1829 1223v-33.4s6.75 1.32 6.75 6.75v26.9z"/><path d="m1863 1223h6.62v-30.5s-6.89 2.65-6.89 6.89 0.265 23.6 0.265 23.6z"/><path d="m1896 1223h-6.62v-29.7s6.62 2.12 6.62 6.62v23z"/><path d="m1877 1223h5.92v-31h-6.62z" stroke-width="1.18"/><ellipse cx="1879" cy="1182" rx="6.36" ry="6.75"/></g></g><g transform="matrix(13.2 0 0 13.2 -1065 -2979)"><g transform="matrix(.866 0 0 .866 30.7 41.4)" fill="#fff" aria-label="&lt;Salmorej    Tech/&gt;"><path d="m72.7 319q-0.16 0-0.24-0.04l-0.28-0.04h-0.08q-0.64-0.96-1.6-3.12l-0.68-1.52-2-4.16-0.4-0.88q-0.36-0.6-0.48-0.96t-0.88-1.36q-0.72-0.96-0.72-1.56 0-0.44 0.92-2.72l2.08-4.76q1.08-2.36 1.36-3.24 0-0.12 0.24-0.76 0.32-1.36 0.76-2.12 0.24-0.48 0.52-0.52l0.52 0.4q-0.16 1.2-0.96 3.16-0.76 1.92-1.76 3.92-0.96 1.92-1.64 3.76-0.64 1.8-0.64 2.84 0 0.32 2.72 5.92 2.76 5.6 3.44 6.72l0.36 0.28q-0.08 0.24-0.24 0.52-0.16 0.24-0.32 0.24z"/><path d="m80.7 320q-0.72 0-1.12-0.08-0.36-0.04-0.8-0.24-0.48-0.24-0.72-0.68 0-0.48 0.44-0.48t1.12 0.28q0.64 0.32 1.08 0.32 0.88 0 1.6-0.72 0.76-0.72 1.16-1.88 0.8-2.28 0.8-4.04 0-1.96-0.56-3.96t-1.48-3.76q-0.2-0.44-0.68-1.32-1-2-1.52-3.12t-0.92-2.48q-0.56-1.8-0.56-3.88 0-1.32 0.4-2.52 0.44-1.24 1.36-2.12 1-0.92 2.24-0.92 0.48 0 1.16 0.4 0.68 0.36 0.68 0.72 0 0.32-0.24 0.32t-0.64-0.2q-0.36-0.2-0.68-0.2-0.92 0-1.64 0.68-0.68 0.68-1 1.68-0.28 0.84-0.28 1.84 0 1.56 0.4 3.24 0.4 1.64 1.08 3.08l1.4 2.92 0.4 0.84q0.84 1.72 1.28 2.84 0.48 1.12 0.8 2.52 0.44 1.88 0.44 3.6 0 2.32-1.2 4.72-0.6 1.16-1.6 1.88t-2.2 0.72z"/><path d="m99 319q-0.6 0-0.76-0.16-0.16-0.12-0.24-0.72-0.36-2.92-0.44-3.64l-0.2-1.6q-0.88-0.2-2-0.2l-1.44-0.08q-0.96-0.12-1.4-0.12-0.24 0-0.28 0.2 0 0.12-0.04 0.12l-0.08 0.8q-0.04 0.72-0.44 2.88-0.2 1.08-0.48 1.68-0.32 0.68-0.6 0.68-0.24 0-0.52-0.2-0.28-0.24-0.28-0.48l0.08-0.24q0.72-2.84 1.2-5.64l0.48-2.48 0.48-3.04t0.44-2.64q0.2-1.08 0.72-3.48 0.56-2.72 0.68-3.72 0.04-0.12 0.16-1.48 0.16-1.52 0.28-2.24 0.12-1.04 0.24-1.2h0.28q0.12 0.04 0.28 0.04 0.48 0 0.72-0.24 0.28 0 0.48 0.2 0.24 0.16 0.24 0.4 0 1.92 0.28 4.4 0.16 1.28 0.24 2.12 0.44 5.16 2.24 19.4v0.12q0 0.4-0.32 0.6zm-1.84-7.2q-0.4-5.76-1.52-17l-2.16 10.7q-0.92 4.6-0.92 5.8 0 0.2 1.52 0.36t2.68 0.16z"/><path d="m104 319q-0.56 0-0.68-0.92 0.08-0.24 0.08-1.32 0-3.68 0.12-10.9 0.12-7.2 0.12-10.4l0.08-1.44 0.12-1.2q0-0.28 0.28-0.28 0.2 0 0.56 0.12l0.12 0.04q0 0.88-0.04 1.6v5.92q0.04 1.92 0.04 4.36-0.04 0.2-0.04 0.88l-0.04 0.84q-0.04 0.8-0.04 1.64 0 0.92 0.04 1.68l0.04 1.72-0.12 0.32 0.04-0.04q0 0.12-0.04 0.16v0.16q0 0.32 0.12 0.56l-0.12 3.84v0.24q0 0.68 0.04 0.8 0 0.2 0.2 0.2l2.08 0.08q0.92 0 1.24 0.04 0.36 0 0.44 0h0.12q0.2 0 0.4 0.24 0.2 0.2 0.2 0.44 0 0.48-0.64 0.52-0.68-0.04-3.32-0.04l0.08 0.04q-0.4 0-0.76 0.04-0.32 0.08-0.72 0.08z"/><path d="m129 321q-0.8 0-0.8-2.56v-2.64q0-5.76-0.24-9l-0.12-1.48q-0.16-1-0.16-1.76 0-1.36 0.08-2.48l0.08-2.48q0-1.24-0.16-1.88-0.8 0.56-4.84 16.8l-0.04 0.6q-0.12 1-0.32 1.6-0.12 0.44-0.36 0.68-0.2 0.24-0.48 0.24-0.64 0-0.92-0.32t-0.28-1q0-1.08-1.04-5.6-1-4.52-2.2-8.68-1.16-4.16-1.6-4.6-0.04 1.4-0.32 6.6-0.56 9.2-0.56 14.5l0.04 1.6q-0.16 0.52-0.84 0.52-0.12 0-0.4-0.24-0.28-0.2-0.28-0.32 0-3.6 0.64-12.6 0.6-8.4 0.6-12.6 0-0.2-0.08-0.4-0.12-0.24-0.12-0.36 0-0.6 1.04-0.6 0.68 0 0.8 0.6 0.16 0.8 0.16 1.2l0.04 0.48q0.2 1.04 1.16 3.2 0.76 1.72 1.16 3 0.24 0.96 0.44 1.56 0.64 2.32 0.84 3.44l0.52 1.04q0.12 0.6 0.48 1.96 0.36 1.52 0.52 2.48t0.16 1.84q0.44-0.68 2.48-8.16 2.08-7.52 2.44-9.6 0.04-0.08 0.04-0.2 0.04-0.16 0.08-0.4 0.08-0.52 0.36-1.56 0.32-0.8 0.96-0.8 0.28 0 0.64 0.24t0.36 0.48q0 16.7 0.52 17.6v2.08q-0.04 0.92-0.04 2.12 0 2.56 0.28 3.84 0.04 0.04 0.04 0.12 0.04 0.08 0.08 0.2 0.04 0.16 0.04 0.36 0 0.44-0.28 0.88-0.24 0.44-0.6 0.44zm-1.32-24.5h-0.04l-0.08 0.04 0.12 0.04z"/><path d="m140 320q-4.68 0-4.68-14.7v-1.4q0-11.2 2.88-11.2 0.2 0 0.56 0.12 1.28 0.44 2.52 0.56 0.76 0.16 1.52 1.56 0.84 1.44 1.24 3.8 0.44 2.36 0.44 4.84l-0.08 0.2q0 1.32 0.04 2.36l0.04 2.4q0 2.04-0.16 3.68-0.24 2.48-0.8 4.28-0.36 1.08-0.84 1.8-0.44 0.72-1.12 1.2-0.64 0.48-1.56 0.48zm-0.16-1.16q1.56 0 2.32-2.2 0.76-2.24 0.92-4.56 0.16-2.4 0.16-3.84 0-1.6-0.24-4.72-0.2-3.48-0.2-4.72l-0.16-0.32 0.08-0.2q0-1.76-1-3.04-0.96-1.28-2.36-1.28-1.84 0-2.2 1.76-0.08 0.6-0.16 1.72 0 2.96-0.24 4.04 0 0.6-0.12 1.88l-0.08 1.88q0 0.88 0.04 1.56l0.04 1.6q0 1.88 0.32 4.32 0.24 1.8 0.56 3.04t0.92 2.12q0.6 0.96 1.4 0.96z"/><path d="m156 319q-0.48-0.52-1.04-2.76t-1.04-5.04q-0.32-2.28-0.92-4.52-0.48-2-0.92-2h-0.12q-0.88 0-0.88 0.56 0 2.88 0.32 8.76 0.16 3.6 0.36 4.2l-0.32 0.68h-0.56l-0.32-0.32q-0.64-18.5-0.64-25.2 0-0.44 0.04-0.72 0.08-0.28 0.28-0.52 0.16-0.28 0.56-0.28 2.04 0 3.28 1t1.24 2.88v2.92q0 0.76-0.52 2.04-0.48 1.28-1.08 2.36l-0.52 1q0.44 2.04 1.72 7.36 1.32 5.28 1.44 5.6 0.04 0.04 0.08 0.2 0.08 0.16 0.28 0.48 0.28 0.56 0.28 0.96 0 0.56-0.44 0.56zm-4.72-15.3q0.76 0 1.36-0.76t0.96-1.96q0.64-2.44 0.64-3.88 0-0.92-0.12-1.52-0.08-0.6-0.32-1.28-0.48-1.4-2.28-1.4-0.2 0-0.32 0.36-0.12 0.32-0.12 0.68 0 2.68 0.08 4.84 0.04 2.16 0.04 4.84z"/><path d="m162 319q-0.72 0-0.8-0.84v-0.52q0.04-0.2 0.04-0.48l-0.16-0.16q0.32-0.84 0.32-1.64 0-0.92-0.12-2.64l-0.08-2.64q0-2 0.12-6 0.16-3.56 0.16-6.04l-0.08-2.4q-0.08-1.08-0.08-2.4 0-0.6 0.28-0.84 0.28-0.28 0.88-0.28 0.4 0 0.64 0.24 0.08 0.04 1.16 0.16 1 0.12 1.72 0.36 0.76 0.24 0.76 0.6 0 0.4-0.76 0.8-2.28-0.76-3.24-0.76l-0.2 0.24q0.04 0.36 0.04 1.72 0 1.72-0.08 3.08-0.04 1.4-0.04 3.12 0 1.12 0.56 1.12l0.64-0.04q0.32-0.04 0.68-0.04 1.56 0 1.56 0.72 0 0.44-0.2 0.76-0.2 0.28-0.6 0.28-0.6 0-0.92-0.32l-1.28-0.2h-0.2l-0.2 0.2v0.12q0.08 0.68 0.08 3.16 0 1.56-0.04 2.84l-0.04 2.84q0 1.56 0.12 3.2 0.04 0.92 0.4 1.24 0.36 0.28 1.32 0.28l0.72-0.04q0.36-0.04 0.8-0.04 1.16 0 1.16 0.52 0 0.72-1.76 0.72z"/><path d="m169 323v-0.08l-0.04-0.08q0-0.12 0.68-0.56 0.64-0.48 1.44-0.96 0.88-0.6 0.92-0.68 0.6-0.68 0.92-2.12 0.36-1.48 0.36-2.88 0-4.28-0.16-10.6-0.2-5.92-0.2-10.6l-0.24-0.44q-0.28-0.08-0.96-0.2-0.76-0.04-1.36-0.32-0.6-0.2-0.6-0.52 0-0.16 0.32-0.32t0.52-0.16q0.76 0 2.4 0.28 1.68 0.28 2.96 0.68 1.32 0.4 1.32 0.72 0 0.24-0.2 0.4-0.16 0.12-0.44 0.12t-1.08-0.2q-0.6-0.2-1.08-0.2-0.36 0-0.36 0.8 0 2.2 0.2 8.32 0.2 4.6 0.2 8.28v4.4q-0.24 0.52-0.24 1.68 0 1.68-0.96 3.8-0.52 1.08-1.36 1.72-0.8 0.68-1.76 0.68h-0.28z"/><path d="m234 319q-0.4 0-0.6-0.28-0.2-0.32-0.2-0.76v-7.12l-0.08-6.4q-0.12-4.28-0.12-6.4l0.04-1.16v-2.6q0-4.32-0.08-4.32h-4.52q-0.32 0-0.6-0.16-0.24-0.16-0.24-0.44 0-0.32 0.12-0.44t0.64-0.2q0.56-0.12 1.6-0.12h4l4.4-0.04q0.48 0 0.64 0.16 0.2 0.16 0.2 0.52 0 0.6-0.76 0.6h-3.56l-0.36 0.04 0.04 2.32v22.7l0.04 2.96v0.08q0 0.32-0.04 0.56-0.04 0.2-0.16 0.32-0.12 0.2-0.4 0.2z"/><path d="m244 319q-0.72 0-0.8-0.84v-0.52q0.04-0.2 0.04-0.48l-0.16-0.16q0.32-0.84 0.32-1.64 0-0.92-0.12-2.64l-0.08-2.64q0-2 0.12-6 0.16-3.56 0.16-6.04l-0.08-2.4q-0.08-1.08-0.08-2.4 0-0.6 0.28-0.84 0.28-0.28 0.88-0.28 0.4 0 0.64 0.24 0.08 0.04 1.16 0.16 1 0.12 1.72 0.36 0.76 0.24 0.76 0.6 0 0.4-0.76 0.8-2.28-0.76-3.24-0.76l-0.2 0.24q0.04 0.36 0.04 1.72 0 1.72-0.08 3.08-0.04 1.4-0.04 3.12 0 1.12 0.56 1.12l0.64-0.04q0.32-0.04 0.68-0.04 1.56 0 1.56 0.72 0 0.44-0.2 0.76-0.2 0.28-0.6 0.28-0.6 0-0.92-0.32l-1.28-0.2h-0.2l-0.2 0.2v0.12q0.08 0.68 0.08 3.16 0 1.56-0.04 2.84l-0.04 2.84q0 1.56 0.12 3.2 0.04 0.92 0.4 1.24 0.36 0.28 1.32 0.28l0.72-0.04q0.36-0.04 0.8-0.04 1.16 0 1.16 0.52 0 0.72-1.76 0.72z"/><path d="m256 319q-0.76-0.24-1.32-0.68-0.52-0.44-1-1.32-0.84-1.6-1-4.6-0.08-1.36-0.08-2.4v-4.56q0-2.6 0.16-5.04 0.12-1.8 0.36-3.04t0.76-2.48q0.56-1.28 1.24-1.8 0.28-0.24 1.08-0.56 0.52-0.2 1-0.44h1.72q0.04 0.04 0.12 0.04l0.2 0.04 0.16 0.12q0.12 0.12 0.12 0.16 0.04 0.08 0.04 0.24l-0.52 0.6h-1.68q-0.76 0-1.4 0.76-0.6 0.72-0.92 1.84-0.32 1-0.52 2.36t-0.24 2.36q-0.08 1.28-0.08 1.76l-0.08 0.2q0 2.24-0.08 4.04l-0.08 4.04q0 1.76 0.24 3.24 0.2 1.6 1.16 2.88 0.92 1.28 2.84 1.28 0.6 0 1-0.36 0.6 0 0.6 0.44 0 0.28-0.52 0.64-0.48 0.4-1 0.6h-1.32z"/><path d="m272 319q0-0.4-1.2-0.4-0.2-7.4-0.2-10.7l-0.12-0.16 0.16-0.36q0-0.72-0.16-1.48l-0.6-0.16q-0.36 0.12-0.8 0.12-0.32 0-1.32-0.2-0.68-0.2-1.24-0.2l-0.44 0.16q0 1.4-0.04 2.52t-0.04 2.52l0.08 0.16q0 1.12 0.12 3.36 0.12 2.2 0.12 3.32 0 0.44-0.16 0.76-0.16 0.28-0.48 0.28-0.88 0-0.88-2.4 0-2.04 0.04-3.68l0.04-3.64q0-3.64-0.12-3.92 0.2-0.4 0.2-2.64 0-1.92-0.16-4.68l-0.08-1.56-0.08-3.12q0-0.28 0.2-0.52t0.48-0.24q0.8 0 0.8 2.32 0 2.72-0.04 4.92-0.08 2.2-0.08 4.84 0 0.48 3.04 0.48h0.16q0.76 0 1.08-0.28 0.36-0.32 0.36-1.04 0-2.12-0.28-5.52-0.24-3.68-0.24-5.52 0-0.24 0.2-0.4 0.2-0.2 0.48-0.2l0.36 0.12q0.28 0.04 0.36 0.12 0 3.12 0.24 9.32 0.24 6.24 0.24 9.36 0 4.72 0.28 7.92zm-2.52-14.9 0.08 0.08h-0.08z"/><path d="m278 319q-0.36-0.24-0.36-0.72 0-0.84 0.2-1.88t0.64-2.84l0.56-2.24q2.56-11.4 5-20.7l0.08-0.24q0.04-0.24 0.12-0.48 0.08-0.28 0.12-0.4l0.2-0.4q0.08-0.12 0.16-0.12 0.6 0 0.6 0.52 0 0.04-0.2 0.96l-0.4 1.72-0.2 1-1.52 6.72-3 13.2-0.8 3.48q-0.04 0.12-0.12 0.56-0.08 0.32-0.32 1.24-0.24 0.6-0.76 0.68z"/><path d="m291 319q-0.16 0-0.36-0.24-0.16-0.28-0.2-0.52l0.36-0.28q0.84-1.52 3.48-6.92 2.68-5.44 2.68-5.72 0-1.04-0.68-2.84-0.64-1.84-1.6-3.76-1-2-1.8-3.92-0.76-1.96-0.92-3.16l0.52-0.4q0.24 0.04 0.52 0.52 0.28 0.44 0.44 0.96 0.04 0.16 0.32 1.12l0.24 0.8q0.28 0.88 1.36 3.24l2.04 4.76q0.96 2.2 0.96 2.72 0 0.6-0.72 1.56-0.76 1-0.88 1.36l-0.48 1q-0.36 0.64-0.4 0.84l-3.44 7.12-0.84 1.68-0.32 0.04z"/></g></g></g></svg>
