<svg width="43" height="43" viewBox="0 0 43 43" fill="none" xmlns="http://www.w3.org/2000/svg">
<path d="M16.1252 34.0417C7.16683 36.7292 7.16683 29.5625 3.5835 28.6667M28.6668 39.4167V32.4829C28.734 31.6286 28.6186 30.7697 28.3282 29.9635C28.0379 29.1572 27.5792 28.422 26.9827 27.8067C32.6085 27.1796 38.521 25.0475 38.521 15.265C38.5205 12.7635 37.5583 10.358 35.8335 8.54624C36.6502 6.35773 36.5925 3.9387 35.6722 1.79166C35.6722 1.79166 33.5581 1.16457 28.6668 4.44332C24.5603 3.33038 20.2316 3.33038 16.1252 4.44332C11.2339 1.16457 9.11975 1.79166 9.11975 1.79166C8.1995 3.9387 8.14175 6.35773 8.9585 8.54624C7.22081 10.3714 6.2576 12.7987 6.271 15.3187C6.271 25.0296 12.1835 27.1617 17.8093 27.8604C17.2199 28.4695 16.7653 29.1959 16.4751 29.9923C16.1849 30.7888 16.0657 31.6374 16.1252 32.4829V39.4167" stroke="#1E1E1E" stroke-width="3" stroke-linecap="round" stroke-linejoin="round"/>
</svg>
