<svg width="70" height="70" viewBox="0 0 70 70" fill="none" xmlns="http://www.w3.org/2000/svg">
<g id="descarga (2) 1">
<path id="Vector" d="M26.2502 55.4165C11.6668 59.7915 11.6668 48.1249 5.8335 46.6665M46.6668 64.1665V52.879C46.7762 51.4883 46.5883 50.0901 46.1156 48.7776C45.6429 47.465 44.8962 46.2682 43.9252 45.2665C53.0835 44.2457 62.7085 40.7749 62.7085 24.8499C62.7077 20.7777 61.1413 16.8617 58.3335 13.9124C59.6631 10.3497 59.5691 6.41171 58.071 2.91653C58.071 2.91653 54.6293 1.89569 46.6668 7.23319C39.9819 5.42142 32.9351 5.42142 26.2502 7.23319C18.2877 1.89569 14.846 2.91653 14.846 2.91653C13.3479 6.41171 13.2539 10.3497 14.5835 13.9124C11.7547 16.8836 10.1867 20.835 10.2085 24.9374C10.2085 40.7457 19.8335 44.2165 28.9918 45.354C28.0322 46.3456 27.2922 47.5281 26.8198 48.8246C26.3474 50.1211 26.1534 51.5026 26.2502 52.879V64.1665" stroke="white" stroke-width="2" stroke-linecap="round" stroke-linejoin="round"/>
</g>
</svg>
