<svg width="83" height="83" viewBox="0 0 83 83" fill="none" xmlns="http://www.w3.org/2000/svg">
<g id="descarga (1) 1">
<path id="Vector" d="M55.3335 27.6665C60.8367 27.6665 66.1146 29.8527 70.006 33.744C73.8973 37.6354 76.0835 42.9133 76.0835 48.4165V72.6248H62.2502V48.4165C62.2502 46.5821 61.5214 44.8228 60.2243 43.5257C58.9272 42.2286 57.1679 41.4998 55.3335 41.4998C53.4991 41.4998 51.7398 42.2286 50.4427 43.5257C49.1455 44.8228 48.4168 46.5821 48.4168 48.4165V72.6248H34.5835V48.4165C34.5835 42.9133 36.7697 37.6354 40.661 33.744C44.5524 29.8527 49.8303 27.6665 55.3335 27.6665Z" stroke="white" stroke-width="2" stroke-linecap="round" stroke-linejoin="round"/>
<path id="Vector_2" d="M20.7498 31.125H6.9165V72.625H20.7498V31.125Z" stroke="white" stroke-width="2" stroke-linecap="round" stroke-linejoin="round"/>
<path id="Vector_3" d="M13.8332 20.7498C17.6531 20.7498 20.7498 17.6531 20.7498 13.8332C20.7498 10.0132 17.6531 6.9165 13.8332 6.9165C10.0132 6.9165 6.9165 10.0132 6.9165 13.8332C6.9165 17.6531 10.0132 20.7498 13.8332 20.7498Z" stroke="white" stroke-width="2" stroke-linecap="round" stroke-linejoin="round"/>
</g>
</svg>
