<?xml version="1.0" encoding="UTF-8" standalone="no"?>
<!-- Created with Inkscape (http://www.inkscape.org/) -->

<svg
   version="1.1"
   id="svg1"
   width="55.935574"
   height="55.844955"
   viewBox="0 0 55.935574 55.844955"
   xmlns="http://www.w3.org/2000/svg"
   xmlns:svg="http://www.w3.org/2000/svg">
  <defs
     id="defs1" />
  <g
     id="g1"
     transform="matrix(0.83571429,0,0,0.83571429,1.2394221,1.2319784)">
    <path
       style="fill:#1e1e1e"
       d="M 22,57.996332 C 12.149908,54.511946 4.0148718,42.753282 4.0148718,32 4.0148718,17.293091 17.293091,4.0148718 32,4.0148718 c 7.031986,0 14.106001,3.0735851 19.508772,8.4763562 11.255565,11.255565 11.255565,27.761979 0,39.017544 C 43.386819,59.630724 33.046722,61.904015 22,57.996332 Z M 30.666667,52 c 0,-5.213749 -0.105405,-5.333333 -4.700907,-5.333333 h -4.700907 l 2.034211,3.93373 c 1.638092,3.167721 5.09487,6.456493 7.034269,6.692391 0.183334,0.0223 0.333334,-2.359455 0.333334,-5.292788 z m 10.020439,-1.372859 2.048041,-3.960474 H 38.03424 c -4.602334,0 -4.700907,0.112818 -4.700907,5.380245 0,4.957745 0.208324,5.268753 2.652866,3.960474 1.459077,-0.780874 3.574485,-3.201984 4.700907,-5.380245 z m -20.312141,0.228547 c -1.685839,-2.961556 -3.342174,-4.158502 -5.708298,-4.125089 -3.202239,0.04522 -3.127953,0.228423 1.888853,4.658271 2.872203,2.53616 5.440937,4.39245 5.708298,4.125089 0.267361,-0.267361 -0.582623,-2.363583 -1.888853,-4.658271 z m 30.240047,-2.126781 c 1.465475,-1.76579 1.239632,-2.06224 -1.571066,-2.06224 -3.028633,0 -4.206277,1.339926 -7.519871,8.556124 -0.738715,1.608742 6.887398,-3.838782 9.090937,-6.493884 z M 16.840381,41 c -0.442183,-1.65 -0.812161,-4.05 -0.822175,-5.333333 -0.01384,-1.77431 -1.136253,-2.333334 -4.684873,-2.333334 -5.1419757,0 -5.3271798,0.373988 -3.2028995,6.467703 C 9.3363119,43.260221 10.303344,44 13.619275,44 c 3.523476,0 3.924886,-0.373856 3.221106,-3 z m 13.826286,-2.333333 v -5.333334 h -6 c -6.369383,0 -6.973603,0.897809 -5.159619,7.666667 0.658739,2.458075 1.7393,3 5.981794,3 5.151907,0 5.177825,-0.0267 5.177825,-5.333333 z M 44.492952,41 c 1.813984,-6.768858 1.209764,-7.666667 -5.159619,-7.666667 h -6 v 5.333334 c 0,5.306637 0.02592,5.333333 5.177825,5.333333 4.242494,0 5.323055,-0.541925 5.981794,-3 z m 11.376614,-1.198964 c 2.124281,-6.093715 1.939077,-6.467703 -3.202899,-6.467703 -3.54862,0 -4.671029,0.559024 -4.684873,2.333334 C 47.97178,36.95 47.601802,39.35 47.159619,41 c -0.70378,2.626144 -0.30237,3 3.221106,3 3.315931,0 4.282963,-0.739779 5.488841,-4.198964 z M 16.018206,28.333333 C 16.02822,27.05 16.398198,24.65 16.840381,23 c 0.70378,-2.626144 0.30237,-3 -3.221106,-3 -3.315931,0 -4.2829631,0.739779 -5.4888415,4.198964 -2.1242803,6.093715 -1.9390762,6.467703 3.2028995,6.467703 3.54862,0 4.671029,-0.559024 4.684873,-2.333334 z m 14.648461,-3 C 30.666667,20.026696 30.640749,20 25.488842,20 c -4.242494,0 -5.323055,0.541925 -5.981794,3 -1.813984,6.768858 -1.209764,7.666667 5.159619,7.666667 h 6 z m 14.64846,3 C 45.263928,21.771564 43.817488,20 38.511158,20 c -5.151907,0 -5.177825,0.0267 -5.177825,5.333333 v 5.333334 h 6 c 4.832333,0 5.996457,-0.454093 5.981794,-2.333334 z m 12.018206,1.198965 c 0,-0.623903 -0.658695,-3.023903 -1.463767,-5.333334 C 54.663688,20.739779 53.696656,20 50.380725,20 c -3.523476,0 -3.924886,0.373856 -3.221106,3 0.442183,1.65 0.812161,4.05 0.822175,5.333333 0.01384,1.77431 1.136253,2.333334 4.684873,2.333334 2.566666,0 4.666666,-0.510466 4.666666,-1.134369 z M 20.374965,13.144312 c 1.30623,-2.294688 2.156214,-4.3909105 1.888853,-4.6582714 -0.267361,-0.2673609 -2.836095,1.5889294 -5.708298,4.1250894 -5.016806,4.429848 -5.091092,4.613051 -1.888853,4.658271 2.366124,0.03341 4.022459,-1.163533 5.708298,-4.125089 z m 10.291702,-1.191224 c 0,-4.9577451 -0.208324,-5.268753 -2.652866,-3.9604739 -1.459077,0.780874 -3.574485,3.2019839 -4.700907,5.3802449 l -2.048041,3.960474 h 4.700907 c 4.602334,0 4.700907,-0.112818 4.700907,-5.380245 z m 10.020439,1.419771 C 39.560684,11.194598 37.445276,8.7734881 35.986199,7.9926141 33.541657,6.684335 33.333333,6.9953429 33.333333,11.953088 c 0,5.267427 0.09857,5.380245 4.700907,5.380245 h 4.700907 z M 47.44448,12.61113 c -2.872203,-2.53616 -5.440937,-4.3924503 -5.708298,-4.1250894 -0.267361,0.2673609 0.582623,2.3635834 1.888853,4.6582714 1.685839,2.961556 3.342174,4.158502 5.708298,4.125089 3.202239,-0.04522 3.127953,-0.228423 -1.888853,-4.658271 z"
       id="path1" />
  </g>
</svg>
