<svg width="44" height="37" viewBox="0 0 44 37" fill="none" xmlns="http://www.w3.org/2000/svg">
<path d="M42.1668 2.01802C40.4112 3.22825 38.4674 4.15388 36.4102 4.75927C35.306 3.51856 33.8386 2.63917 32.2064 2.24005C30.5742 1.84093 28.8559 1.94133 27.284 2.52766C25.712 3.114 24.3623 4.15799 23.4173 5.51843C22.4723 6.87887 21.9776 8.49012 22.0002 10.1343V11.9259C18.7783 12.0076 15.5858 11.3093 12.707 9.89319C9.82819 8.47712 7.35241 6.38724 5.50016 3.80968C5.50016 3.80968 -1.83317 19.9347 14.6668 27.1014C10.8911 29.606 6.39328 30.8619 1.8335 30.6847C18.3335 39.643 38.5002 30.6847 38.5002 10.0805C38.4985 9.58145 38.4494 9.08362 38.3535 8.59343C40.2246 6.79011 41.545 4.51329 42.1668 2.01802Z" stroke="#1E1E1E" stroke-width="4" stroke-linecap="round" stroke-linejoin="round"/>
</svg>
