<svg width="81" height="81" viewBox="0 0 81 81" fill="none" xmlns="http://www.w3.org/2000/svg">
<g id="descarga 1">
<path id="Vector" d="M77.625 10.1248C74.3931 12.4045 70.8146 14.1481 67.0275 15.2885C64.9949 12.9514 62.2935 11.2948 59.2887 10.543C56.284 9.79117 53.1208 9.98029 50.227 11.0848C47.3332 12.1893 44.8485 14.1559 43.1088 16.7186C41.3691 19.2812 40.4585 22.3164 40.5 25.4135V28.7885C34.5689 28.9423 28.6918 27.6269 23.3922 24.9594C18.0925 22.2919 13.5348 18.3552 10.125 13.4998C10.125 13.4998 -3.375 43.8748 27 57.3748C20.0493 62.0929 11.7692 64.4586 3.375 64.1248C33.75 80.9998 70.875 64.1248 70.875 25.3123C70.8719 24.3722 70.7815 23.4344 70.605 22.511C74.0495 19.114 76.4803 14.8252 77.625 10.1248Z" fill="white" stroke="white" stroke-width="2" stroke-linecap="round" stroke-linejoin="round"/>
</g>
</svg>
