<?xml version="1.0" encoding="UTF-8"?>
<svg id="Capa_1" data-name="Capa 1" xmlns="http://www.w3.org/2000/svg" viewBox="0 0 1920 1920">
  <defs>
    <style>
      .cls-1 {
        opacity: .95;
      }
    </style>
  </defs>
  <g>
    <path d="M847.61,1094.36c6.84,0,11.08,3.12,12.62,9.26l.24.98h16.81l-.23-1.49c-1.67-10.84-10.17-22.43-29.01-22.43-19.97,0-32.87,13.99-32.87,35.64s12.27,34.79,32.01,34.79c15.9,0,26.7-8.15,29.64-22.36l.32-1.55h-16.6l-.29.88c-1.42,4.26-4.09,9.15-12.22,9.15-13.86,0-15.35-15.06-15.35-21.54s1.46-21.33,14.93-21.33Z"/>
    <path d="M916.96,1080.48c-19.85,0-33.72,14.48-33.72,35.22s12.59,35.22,32.87,35.22c23.29,0,33.72-17.79,33.72-35.43,0-21.26-12.9-35-32.87-35ZM932.52,1115.69c0,6.35-1.56,21.12-15.99,21.12-10.02,0-16-7.97-16-21.33,0-7.7,2.05-20.65,15.78-20.9,14.1,0,16.21,13.23,16.21,21.12Z"/>
    <path d="M987.37,1081.54h-27.53v68.72h26.89c20.17,0,33.72-14.15,33.72-35.22s-12.99-33.51-33.08-33.51ZM1002.94,1115.05c0,13.28-6.22,20.9-17.06,20.9h-9.38v-40.31h9.59c15.63,0,16.85,14.86,16.85,19.41Z"/>
    <rect x="1030.25" y="1081.54" width="16.87" height="68.51"/>
    <path d="M1103.86,1102.25c0,8.22,0,16.66.27,23.27-5.02-9.8-15.09-27.76-23.89-43.32l-.37-.65h-19.75v67.22h1.29v1.08h14.31v-21.35c0-8.42-.11-18.4-.36-25.41,4.19,8.25,12.5,23.68,24.82,46.09l.37.67h18.91v-68.51h-15.59v20.92Z"/>
    <path d="M1162.76,1094.57c8.92,0,12.14,4.71,13.27,8.67l.27.93h16.77l-.22-1.48c-2.02-13.37-13.74-22.01-29.87-22.01-20.49,0-33.72,14.16-33.72,36.07,0,20.68,12.52,34.58,31.16,34.58,7.88,0,14.11-2.05,18.25-5.96.17,1.23.41,2.49.79,3.75l.27.92h12.7v-39.07h-30.96v14.32h14.5c-.16,4.9-2.21,12.36-13.21,12.36-14.1,0-16.21-13.36-16.21-21.33,0-9.92,2.81-21.76,16.21-21.76Z"/>
    <path d="M1254.6,1106.97c-10.74-2.58-12.46-4.11-12.46-7.71,0-4.75,4.4-5.75,8.1-5.75,8.13,0,9.75,4.25,10.25,7.45l.17,1.09h16.81l-.13-1.4c-.42-4.73-3.59-20.17-26.68-20.17-15.8,0-25.61,7.93-25.61,20.71,0,10.88,6.78,16.93,23.41,20.89,11.63,2.63,13.51,4.8,13.51,8.99,0,2.84-.99,6.61-9.59,6.61-7.25,0-11.25-2.71-12.6-8.52l.02-1.29h-17.05l.18,1.45c1.73,13.8,11.8,21.4,28.38,21.4s27.75-8.26,27.75-21.56c0-11.69-7.09-18.11-24.46-22.16Z"/>
    <path d="M1318.74,1080.48c-19.85,0-33.72,14.48-33.72,35.22s12.59,35.22,32.87,35.22c23.29,0,33.72-17.79,33.72-35.43,0-21.26-12.9-35-32.87-35ZM1318.31,1136.81c-10.02,0-15.99-7.97-15.99-21.33,0-7.7,2.05-20.65,15.78-20.9,14.1,0,16.21,13.23,16.21,21.12,0,6.35-1.56,21.12-15.99,21.12Z"/>
    <path d="M1390.85,1094.36c6.83,0,11.08,3.12,12.62,9.26l.24.98h16.81l-.23-1.49c-1.67-10.84-10.17-22.43-29.01-22.43-19.97,0-32.87,13.99-32.87,35.64s12.27,34.79,32.01,34.79c15.9,0,26.7-8.15,29.64-22.36l.32-1.55h-16.6l-.29.88c-1.42,4.26-4.09,9.15-12.22,9.15-13.86,0-15.35-15.06-15.35-21.54s1.46-21.33,14.93-21.33Z"/>
    <rect x="1429.68" y="1081.54" width="16.87" height="68.51"/>
    <polygon points="1476 1121.67 1507.58 1121.67 1507.58 1107.57 1476 1107.57 1476 1096.07 1508.86 1096.07 1508.86 1081.75 1459.55 1081.75 1459.55 1150.27 1508.9 1150.27 1510.98 1135.95 1476 1135.95 1476 1121.67"/>
    <path d="M1613.06,1081.54l-.37.67c-4.88,8.94-10.87,20.61-14.06,27.75-3.49-7.42-9.2-18.83-13.74-27.72l-.36-.7h-72.49v14.31h20.06v54.2h16.87v-54.2h20.06v-7.73l20.25,35.96c.29.44.43,1.05.43,1.42v24.55h16.66v-24.76c0-.69.14-.93.32-1.23.07-.11.13-.22.15-.26l24.14-42.26h-17.92Z"/>
    <rect x="804.93" y="1049.32" width="826.36" height="9.39"/>
  </g>
  <g>
    <path d="M1085.18,718.82c-9.61-42.24-22.03-80.21-37.29-113.91-15.25-33.69-31.74-62.32-49.51-85.92-17.75-23.58-35.19-41.72-52.33-54.43-17.13-12.7-31.96-19.05-44.49-19.05,26.74,25.4,49.72,54.56,68.93,87.47,19.22,32.93,34.89,67.91,47,104.97,12.12,37.07,21.1,74.91,26.95,113.52,5.86,38.62,8.77,76.33,8.77,113.13,0,40.95-3.13,77.24-9.4,108.85-3.76,18.98-8.28,35.79-13.55,50.47h43.93c8.49-20.16,11.77-44.09,16.93-71.85,5.64-30.32,8.46-62.32,8.46-96.02,0-49.24-4.8-94.98-14.41-137.24Z"/>
    <path d="M882.96,1305.81c-25.33,26.08-46.55,39.1-63.67,39.1-14.16,0-24.21-7.26-30.16-21.78-5.97-14.52-8.94-36.67-8.94-66.46,0-32.01,3.16-69.06,9.5-111.14,6.32-42.06,14.7-86.18,25.13-132.37,10.42-46.17,22.15-91.6,35.19-136.28,13.02-44.68,26.06-85.82,39.1-123.43,13.02-37.6,25.31-68.7,36.86-93.27,11.53-24.58,21.03-39.83,28.48-45.8-14.16-12.66-27.75-23.08-40.77-31.28-13.04-8.18-24.77-12.28-35.19-12.28-16.39,0-42.45,17.87-78.19,53.62-25.32,24.58-54.17,56.04-86.57,94.39-32.39,38.36-66.65,81.37-102.76,129.02-36.13,47.66-72.8,98.3-110.03,151.91-14.91-1.48-29.24-2.97-43-4.47-13.79-1.48-27-2.23-39.66-2.23-30.54,0-57.16,5.41-79.87,16.2-22.72,10.8-39.29,29.6-49.71,56.41h17.87c32.76,0,59.57.38,80.42,1.12,20.84.75,42.81,1.87,65.9,3.35-31.28,47.67-59.2,93.46-83.78,137.39-24.57,43.95-44.12,82.85-58.64,116.73-14.52,33.89-21.78,60.88-21.78,80.98,0,8.94,2.97,19.72,8.94,32.4,5.95,12.65,20.11,24.94,42.45,36.86,28.29-66.29,59.2-133.29,92.71-201.06,33.51-67.75,68.14-133.29,103.88-196.59,23.08,2.98,47.28,5.97,72.61,8.94,25.31,2.98,54.35,7.08,87.13,12.28-5.22,32.03-8.94,58.84-11.17,80.43-2.23,21.61-3.35,40.96-3.35,58.08,0,53.62,7.44,95.89,22.34,126.78,14.89,30.89,40.22,46.35,75.96,46.35,41.7,0,90.45-19.74,127.31-59.2,35.57-38.08,68.24-86.23,90.98-144.42h-45.77c-25.34,44.7-48.59,77.95-69.75,99.74ZM741.65,909.83c-13.04,45.06-24.4,89.55-34.07,133.48-23.09-5.2-45.8-10.42-68.14-15.64-22.34-5.2-44.68-10.05-67.02-14.52,31.28-53.62,62-103.13,92.15-148.56,30.16-45.41,59.01-84.89,86.57-118.4,27.54-33.51,52.5-59.2,74.84-77.07-14.15,32.78-28.48,69.81-43,111.14-14.52,41.33-28.31,84.53-41.33,129.58Z"/>
  </g>
  <path class="cls-1" d="M944.88,679.19c0-17.6,13.55-31.65,31.58-31.65s31.65,14.05,31.65,31.65-13.47,31.73-31.65,31.73-31.58-13.98-31.58-31.73ZM1000.65,679.19c0-14.85-10.94-24.7-24.27-24.7s-24.05,9.85-24.05,24.7,10.94,24.92,24.12,24.92,24.19-10,24.19-24.92ZM964.94,663.4h13.4c6.81,0,11.01,3.33,11.01,8.62,0,3.48-1.74,6.16-5.43,7.46,3.69.94,5.07,3.62,5.07,6.45v3.62c0,1.3.29,2.54.8,3.4h-6.81c-.43-.65-.65-2.03-.65-3.26v-2.32c0-2.68-1.59-4.78-5.43-4.78h-5.36v10.36h-6.59v-29.55ZM977.55,677.16c3.69,0,5.14-2.1,5.14-4.27,0-2.61-2.03-3.98-5.14-3.98h-6.01v8.26h6.01Z"/>
</svg>