<?xml version="1.0" encoding="UTF-8"?>
<svg xmlns="http://www.w3.org/2000/svg" xmlns:xlink="http://www.w3.org/1999/xlink" width="px" height="2300px" viewBox="0 0 1973 2299" version="1.1">
<g id="surface1">
<path style=" stroke:none;fill-rule:nonzero;fill:rgb(39.607844%,45.09804%,81.568629%);fill-opacity:1;" d="M 16.734375 0 L 16.734375 174.941406 L 101.953125 174.941406 L 101.953125 897.386719 L 15.238281 897.386719 L 15.238281 1072.308594 L 471.671875 1072.308594 L 471.691406 1072.261719 L 859.730469 1072.261719 L 859.730469 717.886719 L 669.519531 717.886719 L 669.519531 897.386719 L 321.097656 897.386719 L 321.097656 606.886719 L 657.367188 606.886719 L 657.367188 431.964844 L 321.054688 431.964844 L 321.054688 174.941406 L 658.90625 174.941406 L 658.90625 336.152344 L 838.414062 336.152344 L 838.414062 0 Z M 16.734375 0 "/>
<path style=" stroke:none;fill-rule:nonzero;fill:rgb(26.274511%,36.078432%,78.431374%);fill-opacity:1;" d="M 16.746094 0.0117188 L 16.746094 174.941406 L 101.953125 174.941406 L 101.953125 539.613281 L 416.84375 0.0117188 Z M 16.746094 0.0117188 "/>
<path style=" stroke:none;fill-rule:nonzero;fill:rgb(12.156863%,79.607844%,83.137256%);fill-opacity:1;" d="M 471.664062 1072.308594 L 573.726562 897.375 L 321.097656 897.375 L 321.097656 606.886719 L 657.351562 606.886719 L 657.351562 561.820312 L 101.9375 561.820312 L 101.9375 583.996094 L 386.824219 1072.308594 Z M 471.664062 1072.308594 "/>
<path style=" stroke:none;fill-rule:nonzero;fill:rgb(0%,69.01961%,60.784316%);fill-opacity:1;" d="M 101.953125 584.007812 L 101.953125 897.386719 L 15.253906 897.386719 L 15.253906 1072.320312 L 386.839844 1072.320312 Z M 101.953125 584.007812 "/>
<path style=" stroke:none;fill-rule:nonzero;fill:rgb(15.294118%,0%,53.725493%);fill-opacity:1;" d="M 658.90625 174.941406 L 658.90625 336.167969 L 838.421875 336.167969 L 838.421875 0.0117188 L 441.734375 0.0117188 L 543.796875 174.941406 Z M 658.90625 174.941406 "/>
<path style=" stroke:none;fill-rule:nonzero;fill:rgb(39.607844%,45.09804%,81.568629%);fill-opacity:1;" d="M 969.324219 0 L 969.324219 174.941406 L 1056.039062 174.941406 L 1056.039062 897.386719 L 970.820312 897.386719 L 970.820312 1072.261719 L 1067.335938 1072.261719 L 1067.359375 1072.308594 L 1152.203125 1072.308594 L 1152.222656 1072.261719 L 1358.859375 1072.261719 L 1358.859375 897.386719 L 1275.183594 897.386719 L 1275.183594 676.835938 L 1471.425781 676.835938 C 1486.5625 676.835938 1501.265625 675.84375 1515.753906 674.347656 C 1610.328125 664.726562 1689.441406 624.277344 1743.21875 561.828125 C 1791.882812 505.3125 1819.917969 430.863281 1819.917969 345.242188 C 1819.917969 241.53125 1784.464844 154.53125 1723.160156 93.832031 L 1723.183594 93.8125 C 1663.1875 34.335938 1578.398438 0 1477.546875 0 L 1122.253906 0 L 1275.183594 262.039062 L 1275.183594 174.941406 L 1412.082031 174.941406 C 1515.75 174.941406 1585 225.105469 1598.261719 307.824219 C 1599.8125 317.386719 1600.816406 327.238281 1600.816406 337.648438 C 1600.816406 408.632812 1558.535156 464.925781 1492.917969 488.421875 C 1471.328125 496.183594 1447.214844 500.417969 1421.242188 500.417969 L 1275.117188 500.417969 L 1275.117188 262.039062 L 1122.253906 0 Z M 969.324219 0 "/>
<path style=" stroke:none;fill-rule:nonzero;fill:rgb(51.764709%,53.725493%,85.09804%);fill-opacity:1;" d="M 1819.914062 345.253906 C 1819.914062 241.53125 1784.457031 154.53125 1723.140625 93.828125 L 1598.277344 307.839844 C 1599.828125 317.40625 1600.8125 327.25 1600.8125 337.660156 C 1600.8125 408.648438 1558.535156 464.9375 1492.917969 488.433594 L 1450.089844 561.84375 L 1743.222656 561.84375 C 1791.882812 505.324219 1819.914062 430.875 1819.914062 345.253906 "/>
<path style=" stroke:none;fill-rule:nonzero;fill:rgb(26.274511%,36.078432%,78.431374%);fill-opacity:1;" d="M 1471.441406 676.847656 C 1486.578125 676.847656 1501.273438 675.863281 1515.761719 674.371094 L 1450.089844 561.84375 L 1382.980469 676.847656 Z M 1471.441406 676.847656 "/>
<path style=" stroke:none;fill-rule:nonzero;fill:rgb(26.274511%,36.078432%,78.431374%);fill-opacity:1;" d="M 1275.183594 174.941406 L 1412.09375 174.941406 C 1515.761719 174.941406 1585.015625 225.121094 1598.277344 307.839844 L 1723.179688 93.828125 C 1663.1875 34.355469 1578.40625 0.0117188 1477.558594 0.0117188 L 1122.261719 0.0117188 L 1275.183594 262.058594 Z M 1275.183594 174.941406 "/>
<path style=" stroke:none;fill-rule:nonzero;fill:rgb(26.274511%,36.078432%,78.431374%);fill-opacity:1;" d="M 1421.242188 500.421875 L 1414.25 500.421875 L 1450.089844 561.84375 L 1492.917969 488.433594 C 1471.328125 496.199219 1447.214844 500.421875 1421.242188 500.421875 "/>
<path style=" stroke:none;fill-rule:nonzero;fill:rgb(15.294118%,0%,53.725493%);fill-opacity:1;" d="M 1275.199219 861.621094 L 1152.222656 1072.261719 L 1358.878906 1072.261719 L 1358.878906 897.386719 L 1275.199219 897.386719 Z M 1275.199219 861.621094 "/>
<path style=" stroke:none;fill-rule:nonzero;fill:rgb(15.294118%,0%,53.725493%);fill-opacity:1;" d="M 970.835938 1072.261719 L 1067.382812 1072.261719 L 970.835938 906.796875 Z M 970.835938 1072.261719 "/>
<path style=" stroke:none;fill-rule:nonzero;fill:rgb(15.294118%,0%,53.725493%);fill-opacity:1;" d="M 995.3125 174.941406 L 1056.039062 174.941406 L 1056.039062 561.84375 L 1450.089844 561.84375 L 1414.25 500.421875 L 1275.128906 500.421875 L 1275.128906 262.058594 L 1122.261719 0.0117188 L 969.324219 0.0117188 L 969.324219 174.941406 Z M 995.3125 174.941406 "/>
<path style=" stroke:none;fill-rule:nonzero;fill:rgb(39.607844%,45.09804%,81.568629%);fill-opacity:1;" d="M 340.871094 1175.980469 C 153.691406 1175.980469 0 1315.925781 0 1487.832031 C 0 1563.828125 27.417969 1635.363281 76.078125 1688.570312 C 83.578125 1696.710938 91.273438 1704.035156 99.023438 1711.019531 C 105.914062 1717.175781 112.90625 1722.917969 120.007812 1728.257812 C 198.335938 1787.183594 291.09375 1799.003906 395.636719 1811.765625 C 522.527344 1827.78125 633.746094 1841.324219 642.765625 1945.480469 C 643.160156 1950.003906 643.648438 1954.460938 643.648438 1959.304688 C 643.648438 2008.664062 614.910156 2049.382812 567.457031 2074.640625 C 534.425781 2092.207031 492.371094 2102.265625 444.300781 2102.265625 C 377.414062 2102.265625 322.195312 2084.707031 277.605469 2051.53125 C 234.003906 2019.058594 200.589844 1971.574219 176.535156 1910.660156 L 0 1910.660156 L 0 2266.535156 L 178.03125 2266.535156 L 178.03125 2144.855469 C 218.378906 2186.457031 288.078125 2258.046875 411.839844 2281.546875 C 422.128906 2283.476562 432.863281 2285.066406 443.925781 2286.277344 C 460.5 2288.152344 477.710938 2289.359375 496.046875 2289.359375 C 699.957031 2289.359375 859.730469 2135.71875 859.730469 1941.035156 C 859.730469 1920.128906 857.355469 1894.753906 850.746094 1867.410156 C 840.0625 1823.050781 818.167969 1773.433594 775.832031 1728.257812 C 774.621094 1726.875 773.125 1725.597656 771.871094 1724.273438 C 768.347656 1720.652344 764.710938 1717.019531 760.902344 1713.441406 C 741.035156 1694.734375 717.457031 1677.070312 689.273438 1661.167969 C 625.417969 1626.214844 552.363281 1607.960938 429.105469 1594.253906 C 289.882812 1580.492188 231.425781 1560.417969 215.136719 1512.042969 C 211.667969 1501.746094 210.003906 1490.257812 210.003906 1477.15625 C 210.003906 1428.964844 246.800781 1386.589844 301.015625 1364.855469 C 325.578125 1355.007812 353.589844 1349.382812 383.480469 1349.382812 C 547.800781 1347.902344 605.617188 1452.828125 639.089844 1513.628906 L 804.945312 1513.628906 L 804.945312 1194.25 L 634.507812 1194.25 L 634.507812 1308.332031 C 600.769531 1270.027344 549.335938 1215.988281 455.816406 1190.460938 C 441.117188 1186.449219 425.261719 1183.199219 408.40625 1180.777344 L 408.382812 1180.820312 C 387.589844 1177.792969 365.242188 1175.980469 340.871094 1175.980469 Z M 340.871094 1175.980469 "/>
<path style=" stroke:none;fill-rule:nonzero;fill:rgb(39.607844%,45.09804%,81.568629%);fill-opacity:1;" d="M 120.011719 1728.25 C 198.339844 1787.175781 291.101562 1799.007812 395.640625 1811.769531 C 522.53125 1827.785156 633.738281 1841.324219 642.757812 1945.484375 L 769.539062 1728.25 Z M 120.011719 1728.25 "/>
<path style=" stroke:none;fill-rule:nonzero;fill:rgb(39.607844%,45.09804%,81.568629%);fill-opacity:1;" d="M 567.460938 2074.632812 C 534.425781 2092.199219 492.375 2102.257812 444.304688 2102.257812 C 377.417969 2102.257812 322.203125 2084.707031 277.613281 2051.53125 L 411.832031 2281.542969 C 422.121094 2283.472656 432.859375 2285.066406 443.921875 2286.277344 Z M 567.460938 2074.632812 "/>
<path style=" stroke:none;fill-rule:nonzero;fill:rgb(12.156863%,79.607844%,83.137256%);fill-opacity:1;" d="M 771.863281 1724.277344 C 768.339844 1720.65625 764.703125 1717.019531 760.898438 1713.441406 C 741.027344 1694.734375 717.464844 1677.070312 689.28125 1661.164062 C 625.425781 1626.214844 552.367188 1607.960938 429.113281 1594.253906 C 289.886719 1580.488281 231.429688 1560.414062 215.140625 1512.039062 L 99.027344 1711.019531 C 105.917969 1717.175781 112.910156 1722.910156 120.011719 1728.25 L 775.824219 1728.25 C 774.613281 1726.867188 773.117188 1725.601562 771.863281 1724.277344 "/>
<path style=" stroke:none;fill-rule:nonzero;fill:rgb(12.156863%,79.607844%,83.137256%);fill-opacity:1;" d="M 176.539062 1910.660156 L -0.00390625 1910.660156 L -0.00390625 2266.527344 L 178.03125 2266.527344 L 178.03125 2144.855469 C 218.378906 2186.457031 288.070312 2258.046875 411.832031 2281.542969 L 277.613281 2051.53125 C 234.007812 2019.058594 200.59375 1971.574219 176.539062 1910.660156 "/>
<path style=" stroke:none;fill-rule:nonzero;fill:rgb(12.156863%,79.607844%,83.137256%);fill-opacity:1;" d="M 408.410156 1180.828125 L 301.007812 1364.902344 C 325.570312 1355.054688 353.585938 1349.433594 383.480469 1349.433594 C 547.800781 1347.957031 605.609375 1452.890625 639.082031 1513.6875 L 644.367188 1513.6875 L 455.816406 1190.519531 C 441.117188 1186.503906 425.265625 1183.25 408.410156 1180.828125 "/>
<path style=" stroke:none;fill-rule:nonzero;fill:rgb(0%,69.01961%,60.784316%);fill-opacity:1;" d="M 340.875 1175.980469 C 153.695312 1175.980469 -0.00390625 1315.921875 -0.00390625 1487.824219 C -0.00390625 1563.824219 27.410156 1635.359375 76.070312 1688.566406 C 83.570312 1696.707031 91.277344 1704.03125 99.027344 1711.019531 L 215.140625 1512.039062 C 211.671875 1501.742188 210.007812 1490.25 210.007812 1477.148438 C 210.007812 1428.957031 246.792969 1386.582031 301.007812 1364.84375 L 408.410156 1180.828125 C 387.609375 1177.796875 365.257812 1175.980469 340.875 1175.980469 "/>
<path style=" stroke:none;fill-rule:nonzero;fill:rgb(15.294118%,0%,53.725493%);fill-opacity:1;" d="M 850.742188 1867.414062 C 840.058594 1823.054688 818.160156 1773.425781 775.824219 1728.25 L 769.539062 1728.25 L 642.757812 1945.484375 C 643.152344 1950.003906 643.644531 1954.457031 643.644531 1959.304688 C 643.644531 2008.664062 614.910156 2049.375 567.460938 2074.632812 L 443.921875 2286.277344 C 460.496094 2288.152344 477.71875 2289.363281 496.050781 2289.363281 C 699.960938 2289.363281 859.71875 2135.714844 859.71875 1941.03125 C 859.71875 1920.128906 857.351562 1894.757812 850.742188 1867.414062 Z M 850.742188 1867.414062 "/>
<path style=" stroke:none;fill-rule:nonzero;fill:rgb(39.607844%,45.09804%,81.568629%);fill-opacity:1;" d="M 1450.132812 1166.84375 C 1345.660156 1166.84375 1252.238281 1199.984375 1176.113281 1258.628906 L 1176.09375 1258.585938 C 1049.808594 1355.925781 971.363281 1523.824219 969.433594 1728.257812 C 969.433594 1730.722656 969.324219 1733.203125 969.324219 1735.738281 C 969.324219 1939.058594 1046.683594 2103.933594 1174.109375 2201.160156 C 1254.554688 2262.511719 1354.847656 2296.953125 1468.410156 2296.953125 C 1578.347656 2296.953125 1668.839844 2274.277344 1743.109375 2230.480469 C 1852.824219 2165.765625 1926.652344 2054.5 1972.074219 1898.445312 L 1751.410156 1898.445312 C 1728.566406 1962.328125 1707.273438 1995.796875 1684.472656 2021.660156 C 1671.597656 2036.007812 1657.960938 2048.644531 1643.425781 2059.585938 L 1643.402344 2059.566406 C 1599.476562 2092.699219 1548.003906 2109.859375 1489.703125 2109.859375 C 1403.328125 2109.859375 1333.359375 2074.914062 1284.585938 2011.84375 C 1234.5 1947.144531 1206.636719 1852.832031 1206.636719 1735.738281 C 1206.636719 1733.148438 1206.878906 1730.777344 1206.878906 1728.257812 C 1207.976562 1606.09375 1235.542969 1510.667969 1285.796875 1446.667969 C 1333.148438 1386.476562 1400.476562 1353.9375 1485.144531 1353.9375 C 1541.515625 1353.9375 1594.582031 1371.226562 1639.835938 1402.976562 C 1658.113281 1415.796875 1675.222656 1430.765625 1690.527344 1448.277344 C 1716.402344 1478.703125 1733.132812 1504.496094 1755.992188 1565.351562 L 1949.21875 1565.351562 L 1949.21875 1194.25 L 1762.046875 1194.25 L 1762.046875 1317.464844 C 1749.5625 1301.574219 1735.726562 1284.230469 1719.042969 1267.171875 C 1668.84375 1215.78125 1592.9375 1166.84375 1450.132812 1166.84375 Z M 1450.132812 1166.84375 "/>
<path style=" stroke:none;fill-rule:nonzero;fill:rgb(39.607844%,45.09804%,81.568629%);fill-opacity:1;" d="M 1489.730469 2109.878906 C 1403.355469 2109.878906 1333.382812 2074.941406 1284.605469 2011.875 L 1174.117188 2201.175781 C 1254.5625 2262.523438 1354.859375 2296.980469 1468.421875 2296.980469 C 1578.359375 2296.980469 1668.863281 2274.300781 1743.132812 2230.503906 L 1643.425781 2059.585938 C 1599.496094 2092.71875 1548.03125 2109.878906 1489.730469 2109.878906 "/>
<path style=" stroke:none;fill-rule:nonzero;fill:rgb(65.882355%,66.666669%,89.803922%);fill-opacity:1;" d="M 1949.21875 1194.25 L 1819.085938 1194.25 L 1949.21875 1417.332031 Z M 1949.21875 1194.25 "/>
<path style=" stroke:none;fill-rule:nonzero;fill:rgb(51.764709%,53.725493%,85.09804%);fill-opacity:1;" d="M 1751.410156 1898.394531 C 1728.566406 1962.28125 1707.273438 1995.738281 1684.46875 2021.601562 C 1671.589844 2035.953125 1657.945312 2048.621094 1643.402344 2059.566406 L 1743.109375 2230.425781 C 1852.824219 2165.710938 1926.640625 2054.453125 1972.0625 1898.394531 Z M 1751.410156 1898.394531 "/>
<path style=" stroke:none;fill-rule:nonzero;fill:rgb(51.764709%,53.725493%,85.09804%);fill-opacity:1;" d="M 1690.539062 1448.277344 C 1716.414062 1478.707031 1733.144531 1504.511719 1756 1565.367188 L 1949.214844 1565.367188 L 1949.214844 1417.34375 L 1819.082031 1194.261719 L 1762.046875 1194.261719 L 1762.046875 1317.464844 C 1749.5625 1301.574219 1735.734375 1284.234375 1719.050781 1267.175781 L 1639.835938 1402.988281 C 1658.113281 1415.808594 1675.234375 1430.765625 1690.539062 1448.277344 "/>
<path style=" stroke:none;fill-rule:nonzero;fill:rgb(26.274511%,36.078432%,78.431374%);fill-opacity:1;" d="M 1206.875 1728.257812 L 969.4375 1728.257812 C 969.4375 1730.722656 969.324219 1733.203125 969.324219 1735.738281 C 969.324219 1939.054688 1046.679688 2103.929688 1174.109375 2201.15625 L 1284.59375 2011.855469 C 1234.507812 1947.15625 1206.648438 1852.828125 1206.648438 1735.738281 C 1206.648438 1733.144531 1206.875 1730.777344 1206.875 1728.257812 "/>
<path style=" stroke:none;fill-rule:nonzero;fill:rgb(26.274511%,36.078432%,78.431374%);fill-opacity:1;" d="M 1176.09375 1258.652344 L 1285.808594 1446.671875 C 1333.160156 1386.476562 1400.480469 1353.949219 1485.152344 1353.949219 C 1541.523438 1353.949219 1594.582031 1371.234375 1639.835938 1402.988281 L 1719.050781 1267.175781 C 1668.851562 1215.785156 1592.933594 1166.863281 1450.128906 1166.863281 C 1345.644531 1166.863281 1252.222656 1199.992188 1176.09375 1258.652344 "/>
<path style=" stroke:none;fill-rule:nonzero;fill:rgb(15.294118%,0%,53.725493%);fill-opacity:1;" d="M 969.4375 1728.257812 L 1206.875 1728.257812 C 1207.972656 1606.09375 1235.550781 1510.667969 1285.808594 1446.671875 L 1176.09375 1258.597656 C 1049.808594 1355.9375 971.367188 1523.828125 969.4375 1728.257812 "/>
</g>
</svg>
