<?xml version="1.0" encoding="UTF-8" standalone="no"?>
<svg
   width="1972.0781"
   height="2296.9805"
   viewBox="0 0 1972.0781 2295.9818"
   version="1.1"
   id="svg29"
   sodipodi:docname="epsc.svg"
   xmlns:inkscape="http://www.inkscape.org/namespaces/inkscape"
   xmlns:sodipodi="http://sodipodi.sourceforge.net/DTD/sodipodi-0.dtd"
   xmlns="http://www.w3.org/2000/svg"
   xmlns:svg="http://www.w3.org/2000/svg">
  <defs
     id="defs29" />
  <sodipodi:namedview
     id="namedview29"
     pagecolor="#ffffff"
     bordercolor="#000000"
     borderopacity="0.25"
     inkscape:showpageshadow="2"
     inkscape:pageopacity="0.0"
     inkscape:pagecheckerboard="0"
     inkscape:deskcolor="#d1d1d1" />
  <g
     id="surface1"
     transform="translate(0.00390625,-0.5)">
    <path
       style="fill:#6373cf;fill-opacity:1;fill-rule:nonzero;stroke:none"
       d="M 16.734375,0 V 174.94141 H 101.95313 V 897.38672 H 15.238281 V 1072.3086 H 471.67187 l 0.0195,-0.047 h 388.0391 V 717.88672 H 669.51953 v 179.5 H 321.09766 v -290.5 H 657.36719 V 431.96484 H 321.05469 V 174.94141 H 658.90625 V 336.15234 H 838.41406 V 0 Z m 0,0"
       id="path1" />
    <path
       style="fill:#425cc7;fill-opacity:1;fill-rule:nonzero;stroke:none"
       d="M 16.746094,0.0117188 V 174.94141 H 101.95313 V 539.61328 L 416.84375,0.0117188 Z m 0,0"
       id="path2" />
    <path
       style="fill:#1ecad4;fill-opacity:1;fill-rule:nonzero;stroke:none"
       d="M 471.66406,1072.3086 573.72656,897.375 H 321.09766 V 606.88672 h 336.2539 V 561.82031 H 101.9375 v 22.17578 l 284.88672,488.31251 z m 0,0"
       id="path3" />
    <path
       style="fill:#00b099;fill-opacity:1;fill-rule:nonzero;stroke:none"
       d="M 101.95313,584.00781 V 897.38672 H 15.253906 V 1072.3203 H 386.83984 Z m 0,0"
       id="path4" />
    <path
       style="fill:#260087;fill-opacity:1;fill-rule:nonzero;stroke:none"
       d="M 658.90625,174.94141 V 336.16797 H 838.42187 V 0.0117188 H 441.73437 L 543.79687,174.94141 Z m 0,0"
       id="path5" />
    <path
       style="fill:#6373cf;fill-opacity:1;fill-rule:nonzero;stroke:none"
       d="m 969.32422,0 v 174.94141 h 86.71488 v 722.44531 h -85.21879 v 174.87498 h 96.51559 l 0.024,0.047 h 84.8437 l 0.02,-0.047 h 206.6367 V 897.38672 h -83.6758 V 676.83594 h 196.2422 c 15.1367,0 29.8398,-0.99219 44.3281,-2.48828 94.5742,-9.6211 173.6875,-50.07032 227.4649,-112.51954 48.664,-56.51562 76.6992,-130.96484 76.6992,-216.58593 0,-103.71094 -35.4532,-190.71094 -96.7578,-251.410159 l 0.023,-0.01953 C 1663.1875,34.335938 1578.3984,0 1477.5469,0 h -355.293 l 152.9297,262.03906 v -87.09765 h 136.8984 c 103.668,0 172.918,50.16406 186.1797,132.88281 1.5508,9.5625 2.5547,19.41406 2.5547,29.82422 0,70.98437 -42.2812,127.27734 -107.8984,150.77343 -21.5899,7.76172 -45.7032,11.9961 -71.6758,11.9961 h -146.125 V 262.03906 L 1122.2539,0 Z m 0,0"
       id="path6" />
    <path
       style="fill:#8287d9;fill-opacity:1;fill-rule:nonzero;stroke:none"
       d="m 1819.9141,345.25391 c 0,-103.72266 -35.4571,-190.72266 -96.7735,-251.425785 L 1598.2773,307.83984 c 1.5508,9.56641 2.5352,19.41016 2.5352,29.82032 0,70.98828 -42.2773,127.27734 -107.8945,150.77343 l -42.8282,73.41016 h 293.1329 c 48.6601,-56.51953 76.6914,-130.96875 76.6914,-216.58984"
       id="path7" />
    <path
       style="fill:#425cc7;fill-opacity:1;fill-rule:nonzero;stroke:none"
       d="m 1471.4414,676.84766 c 15.1367,0 29.832,-0.98438 44.3203,-2.47657 l -65.6719,-112.52734 -67.1093,115.00391 z m 0,0"
       id="path8" />
    <path
       style="fill:#425cc7;fill-opacity:1;fill-rule:nonzero;stroke:none"
       d="m 1275.1836,174.94141 h 136.9102 c 103.6679,0 172.9218,50.17968 186.1835,132.89843 L 1723.1797,93.828125 C 1663.1875,34.355469 1578.4063,0.0117188 1477.5586,0.0117188 H 1122.2617 L 1275.1836,262.05859 Z m 0,0"
       id="path9" />
    <path
       style="fill:#425cc7;fill-opacity:1;fill-rule:nonzero;stroke:none"
       d="m 1421.2422,500.42187 h -6.9922 l 35.8398,61.42188 42.8282,-73.41016 c -21.5899,7.76563 -45.7032,11.98828 -71.6758,11.98828"
       id="path10" />
    <path
       style="fill:#260087;fill-opacity:1;fill-rule:nonzero;stroke:none"
       d="m 1275.1992,861.62109 -122.9765,210.64061 h 206.6562 V 897.38672 h -83.6797 z m 0,0"
       id="path11" />
    <path
       style="fill:#260087;fill-opacity:1;fill-rule:nonzero;stroke:none"
       d="m 970.83594,1072.2617 h 96.54686 L 970.83594,906.79687 Z m 0,0"
       id="path12" />
    <path
       style="fill:#260087;fill-opacity:1;fill-rule:nonzero;stroke:none"
       d="m 995.3125,174.94141 h 60.7266 v 386.90234 h 394.0507 L 1414.25,500.42187 H 1275.1289 V 262.05859 L 1122.2617,0.0117188 H 969.32422 V 174.94141 Z m 0,0"
       id="path13" />
    <path
       style="fill:#6373cf;fill-opacity:1;fill-rule:nonzero;stroke:none"
       d="M 340.87109,1175.9805 C 153.69141,1175.9805 0,1315.9258 0,1487.832 c 0,75.9961 27.417969,147.5313 76.078125,200.7383 7.5,8.1406 15.195313,15.4649 22.945313,22.4492 6.890622,6.1563 13.882812,11.8985 20.984372,17.2383 78.32813,58.9258 171.08594,70.7461 275.62891,83.5078 126.89062,16.0157 238.10937,29.5586 247.1289,133.7149 0.39454,4.5234 0.88282,8.9804 0.88282,13.8242 0,49.3594 -28.73828,90.0781 -76.19141,115.3359 -33.03125,17.5664 -75.08594,27.625 -123.15625,27.625 -66.88672,0 -122.10547,-17.5586 -166.69531,-50.7343 -43.60156,-32.4727 -77.01563,-79.9571 -101.07031,-140.8711 H 0 v 355.875 h 178.03125 v -121.6797 c 40.34766,41.6015 110.04687,113.1914 233.80859,136.6914 10.28907,1.9297 21.02344,3.5195 32.08594,4.7304 16.57422,1.875 33.78516,3.0821 52.12109,3.0821 203.91016,0 363.6836,-153.6406 363.6836,-348.3242 0,-20.9063 -2.375,-46.2813 -8.98438,-73.625 -10.68359,-44.3594 -32.57812,-93.9766 -74.91406,-139.1524 -1.21094,-1.3828 -2.70703,-2.6601 -3.96094,-3.9844 -3.52343,-3.6211 -7.16015,-7.2539 -10.96875,-10.832 -19.86718,-18.707 -43.44531,-36.3711 -71.6289,-52.2734 -63.85547,-34.9532 -136.91016,-53.2071 -260.16797,-66.9141 -139.22266,-13.7617 -197.67969,-33.8359 -213.96875,-82.2109 -3.46875,-10.2969 -5.13281,-21.7852 -5.13281,-34.8867 0,-48.1915 36.79687,-90.5665 91.01171,-112.3008 24.5625,-9.8477 52.57422,-15.4727 82.46485,-15.4727 164.32031,-1.4805 222.13672,103.4453 255.60937,164.2461 H 804.94531 V 1194.25 h -170.4375 v 114.082 c -33.73828,-38.3047 -85.17187,-92.3437 -178.6914,-117.8711 -14.69922,-4.0117 -30.55469,-7.2617 -47.41016,-9.6836 l -0.0234,0.043 c -20.79297,-3.0273 -43.14062,-4.8398 -67.51172,-4.8398 z m 0,0"
       id="path14" />
    <path
       style="fill:#6373cf;fill-opacity:1;fill-rule:nonzero;stroke:none"
       d="m 120.01172,1728.25 c 78.32812,58.9258 171.08984,70.7578 275.6289,83.5195 126.89063,16.0157 238.09766,29.5547 247.11719,133.7149 L 769.53906,1728.25 Z m 0,0"
       id="path15" />
    <path
       style="fill:#6373cf;fill-opacity:1;fill-rule:nonzero;stroke:none"
       d="m 567.46094,2074.6328 c -33.03516,17.5664 -75.08594,27.625 -123.15625,27.625 -66.88672,0 -122.10157,-17.5508 -166.69141,-50.7265 l 134.21875,230.0117 c 10.28906,1.9297 21.02734,3.5234 32.08984,4.7343 z m 0,0"
       id="path16" />
    <path
       style="fill:#1ecad4;fill-opacity:1;fill-rule:nonzero;stroke:none"
       d="m 771.86328,1724.2773 c -3.52344,-3.621 -7.16016,-7.2578 -10.96484,-10.8359 -19.8711,-18.707 -43.4336,-36.3711 -71.61719,-52.2773 -63.85547,-34.9493 -136.91406,-53.2032 -260.16797,-66.9102 -139.22656,-13.7656 -197.68359,-33.8398 -213.97266,-82.2148 L 99.027344,1711.0195 c 6.890626,6.1563 13.882816,11.8907 20.984376,17.2305 h 655.8125 c -1.21094,-1.3828 -2.70703,-2.6484 -3.96094,-3.9727"
       id="path17" />
    <path
       style="fill:#1ecad4;fill-opacity:1;fill-rule:nonzero;stroke:none"
       d="M 176.53906,1910.6602 H -0.00390625 v 355.8671 H 178.03125 v -121.6718 c 40.34766,41.6015 110.03906,113.1914 233.80078,136.6875 L 277.61328,2051.5313 c -43.60547,-32.4727 -77.01953,-79.9571 -101.07422,-140.8711"
       id="path18" />
    <path
       style="fill:#1ecad4;fill-opacity:1;fill-rule:nonzero;stroke:none"
       d="m 408.41016,1180.8281 -107.40235,184.0742 c 24.5625,-9.8476 52.57813,-15.4687 82.47266,-15.4687 164.32031,-1.4766 222.1289,103.457 255.60156,164.2539 h 5.28516 l -188.55078,-323.168 c -14.69922,-4.0156 -30.55079,-7.2695 -47.40625,-9.6914"
       id="path19" />
    <path
       style="fill:#00b099;fill-opacity:1;fill-rule:nonzero;stroke:none"
       d="m 340.875,1175.9805 c -187.17969,0 -340.87890625,139.9414 -340.87890625,311.8437 0,76 27.41406225,147.5352 76.07421825,200.7422 7.5,8.1406 15.207032,15.4649 22.957032,22.4531 L 215.14062,1512.0391 c -3.46875,-10.2969 -5.13281,-21.7891 -5.13281,-34.8907 0,-48.1914 36.78516,-90.5664 91,-112.3046 l 107.40235,-184.0157 c -20.80079,-3.0312 -43.15235,-4.8476 -67.53516,-4.8476"
       id="path20" />
    <path
       style="fill:#260087;fill-opacity:1;fill-rule:nonzero;stroke:none"
       d="m 850.74219,1867.4141 c -10.6836,-44.3594 -32.58203,-93.9883 -74.91797,-139.1641 h -6.28516 l -126.78125,217.2344 c 0.39453,4.5195 0.88672,8.9726 0.88672,13.8203 0,49.3594 -28.73437,90.0703 -76.18359,115.3281 l -123.53907,211.6445 c 16.57422,1.875 33.79688,3.086 52.12891,3.086 203.91016,0 363.66797,-153.6485 363.66797,-348.332 0,-20.9024 -2.36719,-46.2735 -8.97656,-73.6172 z m 0,0"
       id="path21" />
    <path
       style="fill:#6373cf;fill-opacity:1;fill-rule:nonzero;stroke:none"
       d="m 1450.1328,1166.8438 c -104.4726,0 -197.8945,33.1406 -274.0195,91.7851 l -0.019,-0.043 c -126.2852,97.3399 -204.73052,265.2383 -206.66021,469.6719 0,2.4649 -0.10937,4.9453 -0.10937,7.4805 0,203.3203 77.35938,368.1953 204.78518,465.4219 80.4453,61.3515 180.7383,95.7929 294.3008,95.7929 109.9375,0 200.4296,-22.6758 274.6992,-66.4726 109.7148,-64.7149 183.5429,-175.9805 228.9648,-332.0352 h -220.664 c -22.8438,63.8828 -44.1368,97.3516 -66.9375,123.2149 -12.875,14.3476 -26.5118,26.9843 -41.0469,37.9257 l -0.024,-0.019 c -43.9257,33.1328 -95.3984,50.293 -153.6992,50.293 -86.375,0 -156.3437,-34.9453 -205.1172,-98.0156 -50.0859,-64.6993 -77.9492,-159.0118 -77.9492,-276.1055 0,-2.5899 0.2422,-4.961 0.2422,-7.4805 1.0977,-122.164 28.6641,-217.5898 78.918,-281.5898 47.3515,-60.1914 114.6797,-92.7305 199.3476,-92.7305 56.3711,0 109.4375,17.2891 154.6914,49.0391 18.2774,12.8203 35.3868,27.789 50.6914,45.3007 25.875,30.4258 42.6055,56.2188 65.4649,117.0743 h 193.2266 V 1194.25 h -187.1719 v 123.2148 c -12.4844,-15.8906 -26.3203,-33.2343 -43.0039,-50.2929 -50.1992,-51.3906 -126.1055,-100.3281 -268.9102,-100.3281 z m 0,0"
       id="path22" />
    <path
       style="fill:#6373cf;fill-opacity:1;fill-rule:nonzero;stroke:none"
       d="m 1489.7305,2109.8789 c -86.375,0 -156.3477,-34.9375 -205.125,-98.0039 l -110.4883,189.3008 c 80.4453,61.3476 180.7422,95.8047 294.3047,95.8047 109.9375,0 200.4414,-22.6797 274.7109,-66.4766 l -99.707,-170.918 c -43.9297,33.1329 -95.3945,50.293 -153.6953,50.293"
       id="path23" />
    <path
       style="fill:#a6a8e3;fill-opacity:1;fill-rule:nonzero;stroke:none"
       d="m 1949.2188,1194.25 h -130.1329 l 130.1329,223.082 z m 0,0"
       id="path24" />
    <path
       style="fill:#8287d9;fill-opacity:1;fill-rule:nonzero;stroke:none"
       d="m 1751.4102,1898.3945 c -22.8438,63.8868 -44.1368,97.3438 -66.9414,123.2071 -12.879,14.3515 -26.5235,27.0195 -41.0665,37.9648 l 99.7071,170.8594 c 109.7148,-64.7149 183.5312,-175.9727 228.9531,-332.0313 z m 0,0"
       id="path25" />
    <path
       style="fill:#8287d9;fill-opacity:1;fill-rule:nonzero;stroke:none"
       d="m 1690.5391,1448.2773 c 25.875,30.4297 42.6054,56.2344 65.4609,117.0899 h 193.2148 V 1417.3438 L 1819.082,1194.2617 h -57.0351 v 123.2031 c -12.4844,-15.8906 -26.3125,-33.2304 -42.9961,-50.289 l -79.2149,135.8125 c 18.2774,12.8203 35.3985,27.7773 50.7032,45.289"
       id="path26" />
    <path
       style="fill:#425cc7;fill-opacity:1;fill-rule:nonzero;stroke:none"
       d="M 1206.875,1728.2578 H 969.4375 c 0,2.4649 -0.11328,4.9453 -0.11328,7.4805 0,203.3164 77.35548,368.1914 204.78518,465.418 l 110.4844,-189.3008 c -50.086,-64.6992 -77.9454,-159.0274 -77.9454,-276.1172 0,-2.5938 0.2266,-4.961 0.2266,-7.4805"
       id="path27" />
    <path
       style="fill:#425cc7;fill-opacity:1;fill-rule:nonzero;stroke:none"
       d="m 1176.0938,1258.6523 109.7148,188.0196 c 47.3516,-60.1953 114.6719,-92.7227 199.3437,-92.7227 56.3711,0 109.4297,17.2852 154.6836,49.0391 l 79.2149,-135.8125 c -50.1992,-51.3906 -126.1172,-100.3125 -268.9219,-100.3125 -104.4844,0 -197.9062,33.1289 -274.0351,91.789"
       id="path28" />
    <path
       style="fill:#260087;fill-opacity:1;fill-rule:nonzero;stroke:none"
       d="m 969.4375,1728.2578 h 237.4375 c 1.0977,-122.164 28.6758,-217.5898 78.9336,-281.5859 l -109.7148,-188.0742 c -126.2852,97.3398 -204.72661,265.2304 -206.6563,469.6601"
       id="path29" />
  </g>
</svg>
